<svg xmlns="http://www.w3.org/2000/svg" viewBox="0 0 24 24"><path d="M5.665 5.823c-.667 0-1.247.08-1.741.241s-.93.356-1.308.583l-.342-.566h-.666l-.075 4.132h.683a11.2 11.2 0 0 1 .433-1.34c.172-.446.394-.843.666-1.193a3.02 3.02 0 0 1 1-.833c.389-.21.855-.316 1.4-.316.594 0 1.124.122 1.59.366s.873.597 1.217 1.075c.339.461.6 1.036.783 1.724s.275 1.458.275 2.308l-.017.567H0v.608l.541.083c.222.033.403.083.542.15a.748.748 0 0 1 .358.358c.074.15.106.328.106.534v.916l-.008 1.35a22.14 22.14 0 0 1-.033.574 12.57 12.57 0 0 0 2.207.767 9.138 9.138 0 0 0 2.158.273c.755 0 1.483-.14 2.183-.426a5.46 5.46 0 0 0 1.832-1.208 5.815 5.815 0 0 0 1.258-1.925 6.09 6.09 0 0 0 .391-1.44h.945a6.05 6.05 0 0 0 .39 1.44c.31.756.73 1.398 1.256 1.925a5.46 5.46 0 0 0 1.834 1.208 5.75 5.75 0 0 0 2.182.425 9.18 9.18 0 0 0 2.158-.266 12.57 12.57 0 0 0 2.208-.767l-.033-.575a66.751 66.751 0 0 1-.008-1.35v-.915c0-.207.033-.385.1-.535a.748.748 0 0 1 .358-.357c.14-.067.32-.117.542-.15l.54-.083v-.608H14.44a9.108 9.108 0 0 1-.017-.567c0-.85.092-1.619.275-2.308s.444-1.263.783-1.724c.344-.478.75-.836 1.216-1.075s.997-.366 1.592-.366c.544 0 1.01.105 1.4.316a3.02 3.02 0 0 1 1 .833c.27.35.493.747.665 1.192.172.44.317.886.433 1.341h.684l-.075-4.132h-.667l-.342.567a6.317 6.317 0 0 0-1.307-.583c-.495-.16-1.075-.24-1.742-.24a5.95 5.95 0 0 0-2.35.467 5.503 5.503 0 0 0-1.882 1.292 5.996 5.996 0 0 0-1.266 2.008 6.913 6.913 0 0 0-.442 2.5l.017.483h-.823l.016-.484c0-.9-.147-1.732-.44-2.499a5.996 5.996 0 0 0-1.27-2.01 5.503 5.503 0 0 0-1.882-1.29 5.953 5.953 0 0 0-2.35-.467zm-.483 7.356h4.32a7.714 7.714 0 0 1-.188.95 5.43 5.43 0 0 1-.792 1.716 3.76 3.76 0 0 1-1.291 1.166c-.517.283-1.103.425-1.758.425a3.77 3.77 0 0 1-1.333-.225c-.405-.15-.691-.308-.858-.475a5.749 5.749 0 0 1-.066-.875 36.8 36.8 0 0 1-.008-.75v-.65c0-.232.033-.438.1-.616a.648.648 0 0 1 .391-.4c.183-.083.433-.144.75-.183a9.87 9.87 0 0 1 .733-.083zm9.316 0h4.32c.178.01.422.039.733.083.317.039.567.1.75.183.2.084.33.217.392.4a1.77 1.77 0 0 1 .1.617v.65l-.009.75c0 .294-.022.585-.066.874-.167.167-.453.325-.858.475-.4.15-.845.225-1.333.225-.656 0-1.242-.142-1.758-.425a3.76 3.76 0 0 1-1.297-1.166 5.43 5.43 0 0 1-.792-1.717 7.712 7.712 0 0 1-.188-.95z" fill="green"/></svg>