<svg xmlns="http://www.w3.org/2000/svg" width="48" height="48" xmlns:v="https://vecta.io/nano"><path fill="#43a047" d="M29.035 24L29 23c0-6.08 2.86-10 7-10 3.411 0 6.33 2.662 7 7h2l.001-9H43s-.533 1.506-1 1.16c-1.899-1.066-3.723-1.132-6.024-1.132C30.176 11.028 25 16.26 25 22.92c0 .364.021.723.049 1.08H22.95c.029-.357.05-.716.05-1.08 0-6.66-5.176-11.892-10.976-11.892-2.301 0-4.125.065-6.024 1.132-.467.346-1-1.16-1-1.16H2.999L3 20h2c.67-4.338 3.589-7 7-7 4.14 0 7 3.92 7 10 0 .339-.014.671-.035 1H0v2h1.009c1.083 0 1.977.861 1.999 1.943.038 1.846.216 4.063.992 5.057 1.269 1.625 3 3 8 3 5.022 0 9.92-4.527 11-10h2c1.08 5.473 5.978 10 11 10 5 0 6.731-1.375 8-3 .776-.994.954-3.211.992-5.057.022-1.082.917-1.943 1.999-1.943H48v-2H29.035zm-17.558 9.73C9.872 33.73 7.322 33.724 7 32c-.109-.583-.091-2.527-.057-4.046a2 2 0 0 1 2-1.954H19c-.794 4.781-3.985 7.73-7.523 7.73zM41 32c-.322 1.724-2.872 1.73-4.477 1.73-3.537 0-6.729-2.949-7.523-7.73h10.057a2 2 0 0 1 2 1.954c.034 1.519.052 3.463-.057 4.046z"/></svg>